<?xml version="1.0" encoding="UTF-8"?> <svg xmlns="http://www.w3.org/2000/svg" width="250" height="137" viewBox="0 0 250 137" fill="none"><path d="M62.4114 6.7731H46.6924V2.68359H82.8589V6.7731H67.1399V47.4126H62.4114V6.7731Z" fill="#353535"></path><path d="M92.926 20.3835C93.9909 18.1257 95.5671 16.4218 97.6544 15.2716C99.7844 14.1214 102.404 13.5463 105.514 13.5463V17.9553L104.428 17.8914C100.892 17.8914 98.123 18.9777 96.1209 21.1503C94.1187 23.3228 93.1177 26.3687 93.1177 30.2878V47.4126H88.5809V13.8019H92.926V20.3835Z" fill="#353535"></path><path d="M125.423 13.5463C129.811 13.5463 133.176 14.6539 135.519 16.8691C137.862 19.0416 139.034 22.2791 139.034 26.5816V47.4126H134.689V42.1729C133.666 43.9194 132.154 45.2826 130.152 46.2624C128.192 47.2422 125.849 47.7321 123.123 47.7321C119.374 47.7321 116.392 46.8375 114.177 45.0483C111.962 43.2592 110.854 40.8949 110.854 37.9556C110.854 35.1014 111.877 32.8011 113.922 31.0545C116.009 29.308 119.31 28.4347 123.826 28.4347H134.497V26.3899C134.497 23.4932 133.688 21.2994 132.069 19.8084C130.45 18.2748 128.086 17.5081 124.976 17.5081C122.846 17.5081 120.801 17.8701 118.842 18.5943C116.882 19.2759 115.2 20.2344 113.794 21.4698L111.749 18.0831C113.453 16.6348 115.498 15.5272 117.883 14.7604C120.269 13.951 122.782 13.5463 125.423 13.5463ZM123.826 44.1537C126.382 44.1537 128.576 43.5787 130.407 42.4285C132.239 41.2357 133.602 39.5317 134.497 37.3166V31.8213H123.954C118.203 31.8213 115.327 33.8235 115.327 37.8278C115.327 39.7873 116.073 41.3422 117.564 42.4924C119.055 43.6 121.142 44.1537 123.826 44.1537Z" fill="#353535"></path><path d="M181.644 13.8019V47.4126H177.299V41.2783C176.106 43.3231 174.466 44.9205 172.379 46.0707C170.291 47.1783 167.906 47.7321 165.222 47.7321C160.834 47.7321 157.363 46.518 154.807 44.0898C152.293 41.6191 151.037 38.0195 151.037 33.291V13.8019H155.573V32.8437C155.573 36.3794 156.447 39.0632 158.193 40.8949C159.94 42.7267 162.432 43.6426 165.669 43.6426C169.205 43.6426 171.995 42.5776 174.04 40.4476C176.085 38.2751 177.107 35.2718 177.107 31.4379V13.8019H181.644Z" fill="#353535"></path><path d="M236.268 13.5463C240.485 13.5463 243.787 14.7604 246.172 17.1886C248.6 19.6167 249.814 23.195 249.814 27.9235V47.4126H245.277V28.3708C245.277 24.8777 244.426 22.2152 242.722 20.3835C241.06 18.5517 238.696 17.6359 235.629 17.6359C232.136 17.6359 229.388 18.7221 227.386 20.8947C225.384 23.0246 224.383 25.9853 224.383 29.7766V47.4126H219.846V28.3708C219.846 24.8777 218.994 22.2152 217.29 20.3835C215.629 18.5517 213.243 17.6359 210.133 17.6359C206.683 17.6359 203.935 18.7221 201.89 20.8947C199.888 23.0246 198.887 25.9853 198.887 29.7766V47.4126H194.35V13.8019H198.695V19.9362C199.888 17.8914 201.55 16.3153 203.68 15.2077C205.81 14.1001 208.259 13.5463 211.028 13.5463C213.839 13.5463 216.268 14.1427 218.312 15.3355C220.4 16.5283 221.955 18.2961 222.977 20.6391C224.212 18.4239 225.98 16.6987 228.28 15.4633C230.623 14.1853 233.286 13.5463 236.268 13.5463Z" fill="#353535"></path><path d="M172.737 89.4281C175.332 89.9881 177.325 91.108 178.716 92.7879C180.145 94.4304 180.86 96.5582 180.86 99.1714C180.86 102.531 179.6 105.126 177.08 106.955C174.598 108.747 170.913 109.643 166.024 109.643H147.86V70.4456H164.896C169.296 70.4456 172.699 71.3228 175.106 73.0774C177.55 74.8319 178.773 77.3144 178.773 80.5248C178.773 82.69 178.227 84.5378 177.137 86.0684C176.084 87.5616 174.617 88.6815 172.737 89.4281ZM152.035 73.8613V88.0842H164.614C167.81 88.0842 170.274 87.4869 172.003 86.2924C173.733 85.0604 174.598 83.2873 174.598 80.9728C174.598 78.6583 173.733 76.9037 172.003 75.7092C170.274 74.4773 167.81 73.8613 164.614 73.8613H152.035ZM165.968 106.227C169.503 106.227 172.173 105.63 173.978 104.435C175.783 103.24 176.685 101.374 176.685 98.8354C176.685 93.9451 173.113 91.5 165.968 91.5H152.035V106.227H165.968Z" fill="#353535"></path><path d="M199.921 79.9648C203.794 79.9648 206.765 80.9354 208.833 82.8766C210.902 84.7805 211.936 87.6176 211.936 91.388V109.643H208.1V105.051C207.197 106.581 205.862 107.776 204.095 108.635C202.365 109.493 200.297 109.923 197.89 109.923C194.581 109.923 191.948 109.139 189.993 107.571C188.037 106.003 187.059 103.931 187.059 101.355C187.059 98.8541 187.962 96.8382 189.767 95.3077C191.61 93.7771 194.524 93.0118 198.51 93.0118H207.931V91.22C207.931 88.6815 207.216 86.759 205.787 85.4524C204.358 84.1085 202.271 83.4366 199.526 83.4366C197.645 83.4366 195.84 83.7539 194.111 84.3885C192.381 84.9858 190.895 85.8257 189.654 86.9083L187.849 83.9405C189.353 82.6713 191.158 81.7007 193.264 81.0288C195.37 80.3195 197.589 79.9648 199.921 79.9648ZM198.51 106.787C200.767 106.787 202.703 106.283 204.321 105.275C205.938 104.23 207.141 102.736 207.931 100.795V95.9796H198.623C193.546 95.9796 191.008 97.7341 191.008 101.243C191.008 102.96 191.666 104.323 192.982 105.331C194.299 106.301 196.141 106.787 198.51 106.787Z" fill="#353535"></path><path d="M250 68.0938V109.643H246.165V103.819C244.961 105.798 243.363 107.309 241.37 108.355C239.414 109.4 237.196 109.923 234.714 109.923C231.931 109.923 229.411 109.288 227.155 108.019C224.898 106.749 223.131 104.976 221.852 102.699C220.574 100.422 219.934 97.8275 219.934 94.9157C219.934 92.0039 220.574 89.4094 221.852 87.1323C223.131 84.8551 224.898 83.1006 227.155 81.8687C229.411 80.5995 231.931 79.9648 234.714 79.9648C237.12 79.9648 239.283 80.4688 241.201 81.4767C243.156 82.4473 244.754 83.8845 245.995 85.7884V68.0938H250ZM235.052 106.395C237.12 106.395 238.982 105.928 240.637 104.995C242.329 104.024 243.645 102.662 244.585 100.907C245.563 99.1527 246.052 97.1555 246.052 94.9157C246.052 92.6759 245.563 90.6787 244.585 88.9242C243.645 87.1696 242.329 85.8257 240.637 84.8925C238.982 83.9219 237.12 83.4366 235.052 83.4366C232.946 83.4366 231.047 83.9219 229.355 84.8925C227.7 85.8257 226.384 87.1696 225.406 88.9242C224.466 90.6787 223.996 92.6759 223.996 94.9157C223.996 97.1555 224.466 99.1527 225.406 100.907C226.384 102.662 227.7 104.024 229.355 104.995C231.047 105.928 232.946 106.395 235.052 106.395Z" fill="#353535"></path><path fill-rule="evenodd" clip-rule="evenodd" d="M18.1937 0.243865C15.6505 0.795917 12.8867 2.29082 11.0025 4.13355C8.74534 6.34099 7.34942 8.8102 6.66755 11.8018L6.45826 12.72L6.38842 41.8732L6.31844 71.0265L5.93537 71.143C3.20507 71.9729 1.2491 73.8009 0.42498 76.2928C0.311718 76.635 0.169342 76.9698 0.108434 77.0365C-0.0377727 77.1969 -0.0353466 80.8153 0.110988 80.8153C0.173173 80.8153 0.254002 80.9736 0.290394 81.167C0.386162 81.6749 0.696707 82.4616 0.870112 82.6353C0.95209 82.7174 1.01926 82.8656 1.01926 82.9645C1.01926 83.1368 1.49312 83.7982 2.16707 84.5664C2.52678 84.9762 3.79539 85.8846 4.46692 86.213C4.71272 86.3332 5.2586 86.5445 5.67998 86.6828L6.44613 86.9342L6.65146 89.0218C6.93915 91.9463 7.14665 93.1353 7.73147 95.2129C7.83222 95.5707 7.91458 95.9572 7.91458 96.0718C7.91458 96.1862 7.99579 96.4689 8.09514 96.6999C8.19448 96.9308 8.39917 97.5227 8.5501 98.015C8.79603 98.8176 9.34485 100.298 9.92508 101.723C10.0396 102.005 10.2087 102.326 10.3009 102.437C10.3929 102.548 10.4684 102.693 10.4684 102.76C10.4684 102.961 11.4432 104.806 12.3176 106.259C15.2508 111.135 19.5534 115.799 23.9398 118.86C25.461 119.921 25.9499 120.245 26.9406 120.847C28.1407 121.577 31.8154 123.399 32.0864 123.399C32.1976 123.399 32.3214 123.452 32.3613 123.517C32.4014 123.582 32.602 123.672 32.807 123.717C33.012 123.762 33.2515 123.885 33.3391 123.991L33.4983 124.183L29.1979 128.491C26.4011 131.293 24.8975 132.889 24.8975 133.057C24.8975 133.318 27.6525 136.187 27.904 136.187C27.9751 136.187 30.4023 133.799 33.2976 130.88L38.5618 125.573H38.9209C39.1186 125.573 39.5636 125.653 39.9099 125.751C40.2563 125.85 40.8719 125.965 41.2781 126.009C41.6842 126.052 42.2588 126.143 42.555 126.21C44.0105 126.54 47.8854 126.613 63.7156 126.606C79.353 126.6 83.6997 126.518 84.9124 126.208C85.1582 126.145 85.7041 126.057 86.1255 126.012C86.5468 125.967 87.175 125.85 87.5214 125.751C87.8677 125.653 88.3274 125.573 88.5429 125.574L88.9347 125.576L94.0915 130.817L99.2482 136.059H99.5342C99.8496 136.059 102.661 133.374 102.661 133.073C102.661 132.98 100.7 130.938 98.303 128.536L93.9446 124.169L94.1049 123.976C94.193 123.87 94.3498 123.783 94.4532 123.783C94.5567 123.783 94.7939 123.705 94.9803 123.61C95.1668 123.515 95.5203 123.349 95.7661 123.241C96.9535 122.718 98.8756 121.736 99.8523 121.153C100.449 120.797 101.024 120.466 101.129 120.417C101.591 120.201 104.021 118.493 105.075 117.643C105.468 117.326 106.02 116.898 106.301 116.692C107.096 116.108 110.579 112.534 111.633 111.219C112.155 110.568 112.851 109.642 113.179 109.16C113.508 108.678 113.914 108.103 114.081 107.881C114.99 106.68 117.167 102.661 117.798 101.02C117.919 100.704 118.093 100.272 118.184 100.061C118.274 99.8501 118.588 98.9293 118.88 98.015C119.173 97.1007 119.493 96.1636 119.592 95.9326C119.691 95.7017 119.772 95.3458 119.772 95.1417C119.772 94.9377 119.83 94.6185 119.901 94.4325C120.198 93.649 120.742 90.3033 120.867 88.488C120.957 87.1714 121.068 86.8256 121.4 86.8256C121.671 86.8256 122.71 86.4459 122.964 86.2541C123.07 86.1746 123.38 85.9974 123.655 85.8601C124.362 85.5067 125.588 84.343 126.134 83.5079C126.685 82.6641 126.863 82.2848 127.187 81.2629L127.43 80.4956L127.432 79.0422C127.434 77.4758 127.157 76.3052 126.521 75.1887C126.461 75.0832 126.358 74.8818 126.293 74.7411C125.886 73.8589 124.266 72.376 123.156 71.8691C122.805 71.7087 122.406 71.5198 122.271 71.4494C122.135 71.3788 121.848 71.2563 121.632 71.1769L121.241 71.0326L66.1418 70.9687L11.043 70.9047L11.0108 42.3895C10.9908 24.622 11.0246 13.6567 11.1006 13.2971C11.3912 11.9226 11.4528 11.6831 11.5779 11.4412C11.6506 11.3005 11.8759 10.8447 12.0788 10.4285C13.4099 7.69612 16.191 5.51681 19.2153 4.83611C20.18 4.61898 23.1167 4.62102 23.8121 4.83944C26.5256 5.69137 28.6372 7.14816 29.9693 9.08706C30.9156 10.4646 31.4036 11.7744 31.7753 13.9348L31.9844 15.1497H34.1551H36.3259L36.3029 13.7215C36.2901 12.9359 36.2134 12.0728 36.1322 11.8033C36.0511 11.5338 35.9376 11.1119 35.8801 10.8657C35.2528 8.18091 32.8605 4.64954 30.523 2.95745C28.7349 1.66332 26.5375 0.657168 24.6079 0.249235L23.4291 0L21.3222 0.0109976L19.2153 0.022123L18.1937 0.243865ZM7.03887 75.6997C4.46896 76.627 3.74866 79.5722 5.63082 81.4573L6.24617 82.0735L6.94336 82.2765L7.64056 82.4794L63.8124 82.4781L119.984 82.4768L120.567 82.278C121.307 82.0256 122.09 81.3124 122.51 80.5085L122.837 79.8821L122.834 78.974C122.832 78.3732 122.752 77.8929 122.598 77.5544C122.313 76.9263 121.47 76.1467 120.682 75.7816L120.091 75.5084L63.9072 75.4806L7.72304 75.4529L7.03887 75.6997ZM11.1373 87.2411C10.8917 87.546 11.4237 91.2038 12.0809 93.7311C12.2547 94.3992 12.4494 95.1761 12.5135 95.4574C12.6569 96.0859 13.6262 98.7422 14.1002 99.8053C14.3475 100.36 15.4392 102.548 15.727 103.066C16.3513 104.19 18.2337 106.984 19.0438 107.989C20.3612 109.623 22.3889 111.72 23.8227 112.932C26.3408 115.06 27.4783 115.904 28.801 116.626C29.3579 116.93 30.1009 117.355 30.4521 117.571C31.1046 117.973 31.2332 118.038 33.0059 118.866C34.092 119.373 35.1398 119.799 35.5597 119.904C35.7002 119.939 35.93 120.014 36.0705 120.072C36.9078 120.414 38.1047 120.768 39.1351 120.978C39.416 121.035 39.9044 121.139 40.2205 121.209C41.1714 121.419 43.0151 121.724 44.3704 121.895L45.6473 122.056H63.8433H82.0393L83.1247 121.891C85.8729 121.474 87.9456 121.079 88.9985 120.773C89.3145 120.681 89.9179 120.509 90.3393 120.391C91.0912 120.18 92.3601 119.72 93.1804 119.361C93.4087 119.261 93.7822 119.099 94.0104 119.002C94.782 118.674 96.2094 117.966 96.8515 117.594C97.2027 117.39 97.806 117.052 98.1923 116.842C101.624 114.978 106.179 110.895 109.006 107.147C109.56 106.413 110.146 105.564 110.513 104.964C110.584 104.848 110.939 104.272 111.301 103.685C112.18 102.262 112.804 101.057 113.343 99.7414C113.588 99.1435 113.865 98.4818 113.959 98.2708C114.973 96.004 116.211 90.665 116.347 87.9765L116.388 87.1453L63.8271 87.1132L11.2661 87.0811L11.1373 87.2411Z" fill="#353535"></path></svg> 